PathFileType	4	(X/Y/Z)	c:/Users/goper/Files/vsCode/490R/osim_files/C17/C17_Fast_04.trc
DataRate	CameraRate	NumFrames	NumMarkers	Units                	OrigDataRate	OrigDataStartFrame	OrigNumFrames
250.00	250.00	8	36	mm	250.0	1046	2090
                Frame#	Time	LPSIS			LASIS			LTH1			LTH2			LTH3			LTH4			LLFE			LMFE			LSH1			LSH2			LSH3			LSH4			LLMAL			LMMAL			LCAL			LMTP5			LTOE			LMTP1			RPSIS			RASIS			RTH1			RTH2			RTH3			RTH4			RLFE			RMFE			RSH1			RSH2			RSH3			RSH4			RLMAL			RMMAL			RCAL			RMTP1			RTOE			RMTP5		
		X1	Y1	Z1	X2	Y2	Z2	X3	Y3	Z3	X4	Y4	Z4	X5	Y5	Z5	X6	Y6	Z6	X7	Y7	Z7	X8	Y8	Z8	X9	Y9	Z9	X10	Y10	Z10	X11	Y11	Z11	X12	Y12	Z12	X13	Y13	Z13	X14	Y14	Z14	X15	Y15	Z15	X16	Y16	Z16	X17	Y17	Z17	X18	Y18	Z18	X19	Y19	Z19	X20	Y20	Z20	X21	Y21	Z21	X22	Y22	Z22	X23	Y23	Z23	X24	Y24	Z24	X25	Y25	Z25	X26	Y26	Z26	X27	Y27	Z27	X28	Y28	Z28	X29	Y29	Z29	X30	Y30	Z30	X31	Y31	Z31	X32	Y32	Z32	X33	Y33	Z33	X34	Y34	Z34	X35	Y35	Z35	X36	Y36	Z36

1046	4.18000	0.00000	0.00000	0.00000	0.00000	0.00000	0.00000	0.00000	0.00000	0.00000	0.00000	0.00000	0.00000	0.00000	0.00000	0.00000	0.00000	0.00000	0.00000	-3212.87573	478.10056	374.38226	0.00000	0.00000	0.00000	0.00000	0.00000	0.00000	0.00000	0.00000	0.00000	0.00000	0.00000	0.00000	-2997.47974	321.21140	377.01151	-2856.11865	272.91531	364.33591	-2868.10059	268.75684	279.59103	-2803.64673	340.92996	324.10489	-2812.81323	140.69049	368.17831	-2846.88818	98.49190	305.01978	0.00000	0.00000	0.00000	0.00000	0.00000	0.00000	0.00000	0.00000	0.00000	0.00000	0.00000	0.00000	0.00000	0.00000	0.00000	-3352.45874	772.67053	28.66770	-3363.45093	726.03394	30.92421	-3364.85669	477.78488	100.26994	0.00000	0.00000	0.00000	0.00000	0.00000	0.00000	-3368.48218	281.77292	66.52928	0.00000	0.00000	0.00000	0.00000	0.00000	0.00000	-3540.31787	352.50427	95.66978	0.00000	0.00000	0.00000	0.00000	0.00000	0.00000	0.00000	0.00000	0.00000	-3368.63867	103.24078	126.57388	0.00000	0.00000	0.00000
1047	4.18400	0.00000	0.00000	0.00000	0.00000	0.00000	0.00000	0.00000	0.00000	0.00000	0.00000	0.00000	0.00000	0.00000	0.00000	0.00000	0.00000	0.00000	0.00000	-3225.60181	479.73941	373.59879	0.00000	0.00000	0.00000	0.00000	0.00000	0.00000	0.00000	0.00000	0.00000	0.00000	0.00000	0.00000	-3009.67139	321.85272	376.02264	-2868.72119	275.33270	363.40430	-2880.18262	271.21365	278.84836	-2817.59375	341.50275	324.66995	-2827.96948	142.21640	367.51364	-2868.08667	103.41956	304.23700	0.00000	0.00000	0.00000	0.00000	0.00000	0.00000	0.00000	0.00000	0.00000	0.00000	0.00000	0.00000	0.00000	0.00000	0.00000	-3356.62573	772.88489	28.02838	-3367.26855	726.16656	30.24209	-3367.47046	477.74426	99.44869	0.00000	0.00000	0.00000	0.00000	0.00000	0.00000	-3369.41846	281.81345	66.26516	0.00000	0.00000	0.00000	0.00000	0.00000	0.00000	-3541.37573	352.42697	95.41378	0.00000	0.00000	0.00000	0.00000	0.00000	0.00000	0.00000	0.00000	0.00000	-3368.74829	103.30309	126.67131	0.00000	0.00000	0.00000
1048	4.18800	0.00000	0.00000	0.00000	0.00000	0.00000	0.00000	0.00000	0.00000	0.00000	0.00000	0.00000	0.00000	0.00000	0.00000	0.00000	0.00000	0.00000	0.00000	-3238.16406	481.50674	372.78546	0.00000	0.00000	0.00000	0.00000	0.00000	0.00000	0.00000	0.00000	0.00000	0.00000	0.00000	0.00000	0.00000	0.00000	0.00000	-2881.18896	277.15622	362.52933	-2890.54956	273.58127	278.71341	0.00000	0.00000	0.00000	-2843.15137	143.66551	367.81979	0.00000	0.00000	0.00000	0.00000	0.00000	0.00000	0.00000	0.00000	0.00000	0.00000	0.00000	0.00000	0.00000	0.00000	0.00000	0.00000	0.00000	0.00000	-3360.54663	772.89783	27.53428	-3371.02905	726.35889	29.61129	-3369.81177	477.69775	98.75206	0.00000	0.00000	0.00000	0.00000	0.00000	0.00000	-3370.24609	281.90121	65.94440	0.00000	0.00000	0.00000	0.00000	0.00000	0.00000	-3542.65674	352.56696	95.17030	0.00000	0.00000	0.00000	0.00000	0.00000	0.00000	0.00000	0.00000	0.00000	-3368.90747	103.37006	126.72445	0.00000	0.00000	0.00000
1049	4.19200	0.00000	0.00000	0.00000	0.00000	0.00000	0.00000	0.00000	0.00000	0.00000	0.00000	0.00000	0.00000	0.00000	0.00000	0.00000	0.00000	0.00000	0.00000	-3250.62720	483.28775	371.95261	0.00000	0.00000	0.00000	0.00000	0.00000	0.00000	0.00000	0.00000	0.00000	0.00000	0.00000	0.00000	0.00000	0.00000	0.00000	-2894.04810	278.90948	361.51620	-2901.12012	275.53146	277.23083	0.00000	0.00000	0.00000	-2859.45776	144.92096	367.73666	0.00000	0.00000	0.00000	0.00000	0.00000	0.00000	0.00000	0.00000	0.00000	0.00000	0.00000	0.00000	0.00000	0.00000	0.00000	0.00000	0.00000	0.00000	-3364.48950	773.08972	26.86239	-3374.70117	726.47253	28.95109	-3371.87720	477.67899	98.02505	0.00000	0.00000	0.00000	0.00000	0.00000	0.00000	-3371.17334	281.92078	65.65221	0.00000	0.00000	0.00000	0.00000	0.00000	0.00000	-3543.74805	352.54385	94.92441	0.00000	0.00000	0.00000	0.00000	0.00000	0.00000	0.00000	0.00000	0.00000	-3368.99268	103.40218	126.81255	0.00000	0.00000	0.00000
1050	4.19600	0.00000	0.00000	0.00000	0.00000	0.00000	0.00000	0.00000	0.00000	0.00000	0.00000	0.00000	0.00000	0.00000	0.00000	0.00000	0.00000	0.00000	0.00000	-3265.47607	484.94003	370.92920	0.00000	0.00000	0.00000	0.00000	0.00000	0.00000	0.00000	0.00000	0.00000	0.00000	0.00000	0.00000	0.00000	0.00000	0.00000	-2907.23267	280.66827	360.43143	-2913.64600	277.36118	276.18350	0.00000	0.00000	0.00000	-2875.02197	145.82501	367.23560	0.00000	0.00000	0.00000	0.00000	0.00000	0.00000	0.00000	0.00000	0.00000	0.00000	0.00000	0.00000	0.00000	0.00000	0.00000	0.00000	0.00000	0.00000	-3368.61353	773.37445	26.20326	-3378.52368	726.66956	28.29120	-3373.76782	477.60846	97.30786	0.00000	0.00000	0.00000	0.00000	0.00000	0.00000	-3372.17798	281.96225	65.33805	0.00000	0.00000	0.00000	0.00000	0.00000	0.00000	-3545.01538	352.67526	94.70336	0.00000	0.00000	0.00000	0.00000	0.00000	0.00000	0.00000	0.00000	0.00000	0.00000	0.00000	0.00000	0.00000	0.00000	0.00000
1051	4.20000	0.00000	0.00000	0.00000	0.00000	0.00000	0.00000	0.00000	0.00000	0.00000	0.00000	0.00000	0.00000	0.00000	0.00000	0.00000	0.00000	0.00000	0.00000	-3277.94360	487.03979	369.99457	0.00000	0.00000	0.00000	0.00000	0.00000	0.00000	0.00000	0.00000	0.00000	0.00000	0.00000	0.00000	0.00000	0.00000	0.00000	-2920.15527	281.63535	359.20331	-2926.23291	278.73108	275.04987	0.00000	0.00000	0.00000	-2891.34790	146.74194	366.94949	0.00000	0.00000	0.00000	0.00000	0.00000	0.00000	0.00000	0.00000	0.00000	0.00000	0.00000	0.00000	0.00000	0.00000	0.00000	0.00000	0.00000	0.00000	-3372.52588	773.59552	25.57821	-3381.96045	726.72992	27.64154	-3375.76294	477.58878	96.63988	0.00000	0.00000	0.00000	0.00000	0.00000	0.00000	-3373.08667	281.98038	64.99555	0.00000	0.00000	0.00000	0.00000	0.00000	0.00000	-3546.16333	352.70877	94.48045	0.00000	0.00000	0.00000	0.00000	0.00000	0.00000	0.00000	0.00000	0.00000	0.00000	0.00000	0.00000	0.00000	0.00000	0.00000
1052	4.20400	0.00000	0.00000	0.00000	0.00000	0.00000	0.00000	0.00000	0.00000	0.00000	0.00000	0.00000	0.00000	0.00000	0.00000	0.00000	0.00000	0.00000	0.00000	-3287.81470	489.51437	369.12317	0.00000	0.00000	0.00000	0.00000	0.00000	0.00000	0.00000	0.00000	0.00000	0.00000	0.00000	0.00000	0.00000	0.00000	0.00000	-2933.55908	282.74146	357.99594	-2938.98828	279.83392	273.91748	0.00000	0.00000	0.00000	-2908.08423	147.49089	366.78091	0.00000	0.00000	0.00000	0.00000	0.00000	0.00000	0.00000	0.00000	0.00000	0.00000	0.00000	0.00000	0.00000	0.00000	0.00000	0.00000	0.00000	0.00000	-3376.38208	773.80524	24.89978	-3385.72119	727.00836	26.94967	-3377.52197	477.48477	95.85188	0.00000	0.00000	0.00000	0.00000	0.00000	0.00000	-3373.80615	281.87619	64.69341	0.00000	0.00000	0.00000	0.00000	0.00000	0.00000	-3547.44238	352.80429	94.27404	0.00000	0.00000	0.00000	0.00000	0.00000	0.00000	0.00000	0.00000	0.00000	0.00000	0.00000	0.00000	0.00000	0.00000	0.00000
1053	4.20800	0.00000	0.00000	0.00000	0.00000	0.00000	0.00000	0.00000	0.00000	0.00000	0.00000	0.00000	0.00000	0.00000	0.00000	0.00000	0.00000	0.00000	0.00000	-3299.97925	491.71970	368.16525	0.00000	0.00000	0.00000	0.00000	0.00000	0.00000	0.00000	0.00000	0.00000	0.00000	0.00000	0.00000	0.00000	0.00000	0.00000	-2947.25903	284.43045	357.03922	-2952.49829	280.83551	271.41592	0.00000	0.00000	0.00000	-2924.29419	148.07155	367.66928	0.00000	0.00000	0.00000	0.00000	0.00000	0.00000	0.00000	0.00000	0.00000	0.00000	0.00000	0.00000	0.00000	0.00000	0.00000	0.00000	0.00000	0.00000	-3380.25439	774.07477	24.27944	-3389.07666	727.12317	26.30443	-3379.35083	477.31415	95.04174	0.00000	0.00000	0.00000	0.00000	0.00000	0.00000	0.00000	0.00000	0.00000	0.00000	0.00000	0.00000	0.00000	0.00000	0.00000	-3548.59521	352.91055	94.09304	0.00000	0.00000	0.00000	0.00000	0.00000	0.00000	0.00000	0.00000	0.00000	0.00000	0.00000	0.00000	0.00000	0.00000	0.00000
